<?xml version="1.0" encoding="utf-8"?>
<!-- Generator: Adobe Illustrator 26.3.1, SVG Export Plug-In . SVG Version: 6.00 Build 0)  -->
<!DOCTYPE svg PUBLIC "-//W3C//DTD SVG 1.1//EN" "http://www.w3.org/Graphics/SVG/1.1/DTD/svg11.dtd" [
	<!ENTITY ns_extend "http://ns.adobe.com/Extensibility/1.0/">
	<!ENTITY ns_ai "http://ns.adobe.com/AdobeIllustrator/10.0/">
	<!ENTITY ns_graphs "http://ns.adobe.com/Graphs/1.0/">
	<!ENTITY ns_vars "http://ns.adobe.com/Variables/1.0/">
	<!ENTITY ns_imrep "http://ns.adobe.com/ImageReplacement/1.0/">
	<!ENTITY ns_sfw "http://ns.adobe.com/SaveForWeb/1.0/">
	<!ENTITY ns_custom "http://ns.adobe.com/GenericCustomNamespace/1.0/">
	<!ENTITY ns_adobe_xpath "http://ns.adobe.com/XPath/1.0/">
]>
<svg version="1.1" xmlns:x="&ns_extend;" xmlns:i="&ns_ai;" xmlns:graph="&ns_graphs;"
	 xmlns="http://www.w3.org/2000/svg" xmlns:xlink="http://www.w3.org/1999/xlink" x="0px" y="0px" width="1000px" height="450px"
	 viewBox="0 0 1000 450" enable-background="new 0 0 1000 450" xml:space="preserve">
<metadata>
	<sfw  xmlns="&ns_sfw;">
		<slices></slices>
		<sliceSourceBounds  bottomLeftOrigin="true" height="450" width="1000" x="0" y="1986"></sliceSourceBounds>
	</sfw>
</metadata>
<g id="FILL-BACKGROUND">
	<rect fill="#FFFFFF" width="1000" height="450"/>
</g>
<g id="_x32_D_x24_AG-DIAGRAM">
	<g id="POLYLINE_00000084516440627427264040000018244504527353329086_">
		
			<line fill="none" stroke="#FB8604" stroke-width="3.25" stroke-linecap="round" stroke-linejoin="round" stroke-miterlimit="10" stroke-dasharray="4,7" x1="54.317" y1="395.97" x2="933.56" y2="395.97"/>
	</g>
</g>
<g id="_x32_D_x24_AG-DETAILS">
	<g id="POLYLINE_00000049906538550325822790000008582545353246878143_">
		<path fill="none" stroke="#FB8604" stroke-width="2" stroke-linecap="round" stroke-linejoin="round" stroke-miterlimit="10" d="
			M827.861,175.957l-1.974,2.684c-1.384,1.917-2.661,3.958-3.646,6.11c-1.459,3.159-2.428,6.582-3.2,9.969
			c-1.213,5.462-1.904,11.122-2.042,16.716c-0.092,4.444,0.157,8.956,1.06,13.315"/>
	</g>
	<g id="POLYLINE_00000152944485587640582900000007543738005744073125_">
		<path fill="none" stroke="#FB8604" stroke-width="2" stroke-linecap="round" stroke-linejoin="round" stroke-miterlimit="10" d="
			M860.903,173.156c2.424,2.359,4.922,4.836,6.932,7.558c2.884,3.862,5.072,8.25,6.956,12.673c1.968,4.68,3.601,9.594,4.784,14.532
			c0.894,3.78,1.561,7.699,1.769,11.58"/>
	</g>
	<g id="POLYLINE_00000069369585666938085050000010864462719135495082_">
		<path fill="none" stroke="#FB8604" stroke-width="2" stroke-linecap="round" stroke-linejoin="round" stroke-miterlimit="10" d="
			M825.831,171.616c-5.593,3.456-10.86,7.608-14.973,12.77c-3.474,4.325-6.215,9.261-8.381,14.358
			c-2.361,5.609-4.079,11.563-4.858,17.605"/>
	</g>
	<g id="POLYLINE_00000114763579012158057680000010781494427036777647_">
		<path fill="none" stroke="#FB8604" stroke-width="2" stroke-linecap="round" stroke-linejoin="round" stroke-miterlimit="10" d="
			M862.793,170.286c3.798,1.802,7.688,3.746,11.158,6.122c4.123,2.794,7.935,6.123,11.522,9.572
			c7.077,6.908,13.609,14.565,18.553,23.16"/>
	</g>
	<g id="POLYLINE_00000160885242999787725360000003741624078320309938_">
		<path fill="none" stroke="#FB8604" stroke-width="2" stroke-linecap="round" stroke-linejoin="round" stroke-miterlimit="10" d="
			M822.68,169.236c-3.518-0.082-7.435-0.195-10.904,0.305c-4.815,0.65-9.539,2.14-14.087,3.816
			c-5.8,2.174-11.522,4.856-16.889,7.949c-4.563,2.651-9.015,5.667-12.934,9.211"/>
	</g>
	<g id="POLYLINE_00000172402194033574206540000008753555903688244366_">
		<path fill="none" stroke="#FB8604" stroke-width="2" stroke-linecap="round" stroke-linejoin="round" stroke-miterlimit="10" d="
			M859.783,167.626c5.645-1.305,11.498-1.919,17.29-1.844c5.292,0.075,10.638,0.731,15.751,2.114
			c7.842,2.106,15.165,5.944,21.703,10.721"/>
	</g>
	<g id="POLYLINE_00000183949774959023262800000000849324499108972187_">
		<path fill="none" stroke="#FB8604" stroke-width="2" stroke-linecap="round" stroke-linejoin="round" stroke-miterlimit="10" d="
			M621.045,224.659c4.849,2.896,9.264,6.984,11.487,12.265c2.191,5.339,1.727,11.406,0.12,16.842"/>
	</g>
	<g id="POLYLINE_00000120527922728402627100000003056312027184941715_">
		<path fill="none" stroke="#FB8604" stroke-width="2" stroke-linecap="round" stroke-linejoin="round" stroke-miterlimit="10" d="
			M623.099,221.891c5.078-0.941,10.611-1.011,15.313,1.384c1.926,0.975,3.634,2.366,5.033,4.006
			c1.224,1.436,2.248,3.068,2.917,4.836c0.77,2.035,1.063,4.387,0.18,6.434c-0.571,1.319-1.573,2.401-2.64,3.34"/>
	</g>
	<g id="POLYLINE_00000081616909947345904940000012614300940280124567_">
		<path fill="none" stroke="#FB8604" stroke-width="2" stroke-linecap="round" stroke-linejoin="round" stroke-miterlimit="10" d="
			M625.152,224.212c6.078,1.952,11.852,5.346,15.921,10.332c3.407,4.198,5.313,9.454,6.132,14.757"/>
	</g>
	<g id="POLYLINE_00000003817890383666313660000001605566860824345018_">
		<path fill="none" stroke="#FB8604" stroke-width="2" stroke-linecap="round" stroke-linejoin="round" stroke-miterlimit="10" d="
			M604.816,225.516c-1.755,3.433-2.919,7.209-3.182,11.065c-0.289,4.331,0.554,8.706,2.17,12.72"/>
	</g>
	<g id="POLYLINE_00000099645811684368411260000011820085178383873717_">
		<path fill="none" stroke="#FB8604" stroke-width="2" stroke-linecap="round" stroke-linejoin="round" stroke-miterlimit="10" d="
			M602.489,223.43c-2.625,1.174-5.1,2.718-7.262,4.616c-2.657,2.335-4.843,5.199-6.492,8.323"/>
	</g>
	<g id="POLYLINE_00000047054895775464255990000014564466144280948871_">
		<path fill="none" stroke="#FB8604" stroke-width="2" stroke-linecap="round" stroke-linejoin="round" stroke-miterlimit="10" d="
			M602.603,225.958c-3.227,4.064-5.523,8.938-6.283,14.089c-0.341,2.305-0.308,4.664,0.01,6.97"/>
	</g>
	<g id="POLYLINE_00000082347216137904144040000009852443560869050037_">
		<path fill="none" stroke="#FB8604" stroke-width="2" stroke-linecap="round" stroke-linejoin="round" stroke-miterlimit="10" d="
			M469.537,317.164c5.43-4.589,12.048-7.686,18.919-9.415c4.84-1.176,10.238-1.688,14.84,0.585c3.438,1.686,6.031,4.757,7.647,8.182
			c1.617,3.416,2.372,7.2,3.006,10.904c0.613,3.743,1.41,10.449,2.442,14.003c0.599,2.143,1.447,4.243,2.586,6.158
			c0.843,1.427,1.855,2.78,2.933,4.037c1.737,2.041,3.959,4.301,5.108,6.734c0.399,0.837,0.692,1.733,0.813,2.655
			c0.12,0.896,0.066,1.813-0.101,2.7c-0.424,2.191-1.452,4.228-2.669,6.081c-1.652,2.476-3.705,4.704-6.064,6.521"/>
	</g>
	<g id="POLYLINE_00000087400180069121573340000005532620290731596981_">
		<path fill="none" stroke="#FB8604" stroke-width="2" stroke-linecap="round" stroke-linejoin="round" stroke-miterlimit="10" d="
			M500.149,378.943c2.289-0.56,4.506-1.469,6.492-2.742c1.968-1.256,3.706-2.87,5.147-4.704"/>
	</g>
	<g id="POLYLINE_00000152949351988543667370000017180010654590911911_">
		<path fill="none" stroke="#FB8604" stroke-width="2" stroke-linecap="round" stroke-linejoin="round" stroke-miterlimit="10" d="
			M613.74,182.785c0.246,2.303,1.264,4.506,2.748,6.273c0.508,0.591,1.102,1.12,1.786,1.499c0.701,0.392,1.494,0.614,2.293,0.675
			c1.991,0.138,4.485-0.485,6.467-0.709c1.284-0.151,2.61-0.243,3.882,0.041c1.134,0.254,2.162,0.856,3.046,1.597
			c0.798,0.666,1.517,1.452,2.196,2.238c1.349,1.6,2.951,3.556,4.442,5.002c2.031,1.999,4.277,3.851,6.837,5.132
			c1.595,0.784,3.339,1.346,5.127,1.39c1.053,0.016,2.176-0.163,3.018-0.839c0.816-0.654,1.242-1.659,1.512-2.644
			c0.567-2.121,0.58-4.551,1.198-6.66c0.269-0.911,0.668-1.824,1.37-2.485c0.557-0.529,1.26-0.886,1.985-1.125
			c1.137-0.371,2.347-0.487,3.537-0.514"/>
	</g>
	<g id="POLYLINE_00000129914478678756577460000017042414810266849463_">
		<path fill="none" stroke="#FB8604" stroke-width="2" stroke-linecap="round" stroke-linejoin="round" stroke-miterlimit="10" d="
			M324.281,74.129c0.227,2.896,0.515,6.021,1.173,8.841c0.848,3.734,2.109,7.42,3.494,10.987c2.465,6.221,5.42,12.343,9.289,17.82"
			/>
	</g>
	<g id="POLYLINE_00000151515081261584303300000008367946376953776819_">
		<path fill="none" stroke="#FB8604" stroke-width="2" stroke-linecap="round" stroke-linejoin="round" stroke-miterlimit="10" d="
			M319.379,75.695c-0.957,3.213-1.853,6.543-2.231,9.878c-0.513,4.327-0.282,8.749,0.25,13.063
			c0.988,7.536,2.873,15.066,6.202,21.924"/>
	</g>
	<g id="POLYLINE_00000138534460483125509340000001104535151636585864_">
		<path fill="none" stroke="#FB8604" stroke-width="2" stroke-linecap="round" stroke-linejoin="round" stroke-miterlimit="10" d="
			M314.545,76.035c-2.412,2.093-4.778,4.333-6.723,6.875c-1.463,1.903-2.698,3.994-3.639,6.202
			c-1.638,3.866-2.463,8.048-2.834,12.217c-0.486,5.888-0.075,11.904,1.553,17.596"/>
	</g>
</g>
<g id="_x32_D_x24_AG-ANIMALS">
	<g id="POLYLINE_00000010989389346347488590000007766180677637441215_">
		
			<path fill="none" stroke="#FB8604" stroke-width="2.75" stroke-linecap="round" stroke-linejoin="round" stroke-miterlimit="10" d="
			M904.666,375.051c5.665-8.719,10.305-18.243,13.469-28.154c2.217-6.972,3.702-14.281,4.664-21.528
			c0.879-6.88,1.623-13.932,0.9-20.859c-0.354-3.328-1.109-6.642-2.432-9.723c-1.671-4.02-4.443-8.124-6.774-11.808
			c-1.613-2.549-3.14-5.235-4.127-8.094c-0.721-2.059-1.17-4.236-1.303-6.414c-0.204-3.143,0.298-7.522,0.49-10.678
			c0.162-2.726,0.186-5.53-0.066-8.25c-0.326-3.578-1.043-7.189-1.958-10.662c-1.826-6.815-4.469-13.475-7.921-19.632"/>
	</g>
	<g id="POLYLINE_00000151522475418534879140000010614834795862872248_">
		
			<path fill="none" stroke="#FB8604" stroke-width="2.75" stroke-linecap="round" stroke-linejoin="round" stroke-miterlimit="10" d="
			M885.31,375.164c2.309-1.057,4.807-1.675,7.325-1.972c1.716-0.202,3.487-0.339,5.214-0.271c2.284,0.094,4.664,0.545,6.544,1.919
			c2.061,1.506,3.088,3.993,3.725,6.387c0.724,2.858,0.969,5.855,0.79,8.796c-0.087,1.107-0.21,2.257-0.723,3.259
			c-0.181,0.346-0.418,0.664-0.706,0.928c-0.301,0.277-0.654,0.495-1.024,0.666c-1.142,0.516-2.411,0.681-3.647,0.814
			c-3.06,0.277-6.526,0.336-9.605,0.37c-4.072,0.007-8.264-0.121-12.309-0.607"/>
	</g>
	<g id="POLYLINE_00000153682153318738099740000017244451573582185892_">
		
			<path fill="none" stroke="#FB8604" stroke-width="2.75" stroke-linecap="round" stroke-linejoin="round" stroke-miterlimit="10" d="
			M785.024,371.177c-2.202-0.131-4.449-0.064-6.6,0.458c-1.789,0.429-3.506,1.196-4.991,2.287c-2.399,1.767-4.295,4.172-5.669,6.802
			c-1.713,3.307-2.621,7.236-1.654,10.903c0.25,0.894,0.631,1.772,1.232,2.487c0.337,0.401,0.749,0.738,1.207,0.991
			c0.807,0.448,1.727,0.651,2.635,0.773c1.122,0.151,2.362,0.177,3.496,0.213c8.914,0.045,24.159-0.238,33.051-0.05
			c2.694-0.035,5.482-0.073,8.139-0.539c1.697-0.293,3.378-0.835,4.991-1.434"/>
	</g>
	<g id="POLYLINE_00000147939245706017306150000005589488273911742875_">
		
			<path fill="none" stroke="#FB8604" stroke-width="2.75" stroke-linecap="round" stroke-linejoin="round" stroke-miterlimit="10" d="
			M791.658,233.803c-1.667,3.535-3.78,7.669-4.697,11.458c-0.451,1.755-0.738,3.569-0.885,5.374
			c-0.311,3.364-0.221,10.73-0.276,14.189c-0.119,4.053-0.36,8.21-1.693,12.071c-0.728,2.08-1.835,4.026-3.08,5.838
			c-1.839,2.68-4.401,5.718-6.117,8.476c-1.01,1.601-1.906,3.305-2.609,5.063c-0.976,2.44-1.645,5.037-2.129,7.617
			c-1.2,6.549-1.331,13.323-0.964,19.959c0.509,8.399,1.875,16.842,4.375,24.885c2.103,6.722,4.92,13.305,8.447,19.404
			c0.531,0.856,1.155,1.678,1.94,2.317c0.801,0.663,1.754,1.12,2.723,1.484c1.259,0.488,3.543,1.122,4.834,1.529
			c1.828,0.583,3.688,1.24,5.286,2.323c2.881,1.946,4.556,5.144,5.848,8.28"/>
	</g>
	<g id="POLYLINE_00000010297935539611367760000011505907148662310063_">
		
			<path fill="none" stroke="#FB8604" stroke-width="2.75" stroke-linecap="round" stroke-linejoin="round" stroke-miterlimit="10" d="
			M852.6,376.177c-0.599-2.012-1.666-5.484-2.131-7.469c-0.587-2.388-1.139-5.285-1.575-7.72
			c-0.979-5.767-1.871-11.879-2.255-17.714c-0.264-4.122-0.239-12.04-0.43-16.189c-0.148-3.48-0.416-7.115-0.905-10.565
			c-0.837-6.071-2.86-13.056-4.018-19.078c-0.973-5.076-1.389-10.566-1.729-15.73"/>
	</g>
	<g id="POLYLINE_00000074413648860445149270000013007503448179740802_">
		
			<path fill="none" stroke="#FB8604" stroke-width="2.75" stroke-linecap="round" stroke-linejoin="round" stroke-miterlimit="10" d="
			M797.118,179.491l-0.687,6.63c-1.373,11.611-4.553,29.516-4.91,41.055c-0.116,3.909,0.099,7.867,0.757,11.723
			c1.232,7.131,3.945,15.268,4.529,22.491c0.675,7.532-0.777,16.012-0.394,23.553c0.159,3.631,0.815,7.269,1.729,10.783
			c1.399,5.663,5.458,16.229,7.409,21.821l1.152,3.403c3.781,12.262,9.855,30.078,13.03,42.31c0.588,2.415,1.146,4.936,1.426,7.403
			c0.27,2.309,0.269,4.666-0.054,6.969c-0.373,2.833-1.328,6.032-1.687,8.866c-0.144,1.147-0.211,2.323-0.079,3.475
			c0.126,1.088,0.428,2.165,0.931,3.141c0.592,1.145,1.504,2.199,2.735,2.662c0.784,0.299,1.637,0.366,2.47,0.381
			c0.783,0.02,2.941-0.074,3.749-0.092c5.765-0.123,14.202,0.481,19.894-0.173c1.259-0.172,2.577-0.42,3.622-1.186"/>
	</g>
	<g id="POLYLINE_00000053523261005357040740000004441651914362189748_">
		
			<path fill="none" stroke="#FB8604" stroke-width="2.75" stroke-linecap="round" stroke-linejoin="round" stroke-miterlimit="10" d="
			M861.497,279.397c-0.663,8.492-1.272,17.874-1.247,26.368c-0.014,9.625,0.927,25.035,0.318,34.549
			c-0.313,5.335-1.189,10.707-2.62,15.857c-1.42,5.158-3.597,11.695-4.729,16.903c-1.165,5.235-1.77,11.039-2.353,16.376
			c-0.096,0.997-0.153,2.044,0.208,2.998c0.63,1.664,2.15,2.926,3.861,3.363c0.859,0.222,1.763,0.272,2.648,0.28
			c0.935,0.014,3.755-0.119,4.739-0.153c1.218-0.038,2.722-0.028,3.945,0c4.339,0.071,9.46,0.461,13.729-0.292
			c1.684-0.312,3.436-0.863,4.626-2.159c3.071-3.326,1.464-9.561,0.998-13.632c-1.297-9.876,1.778-19.704,4.58-29.067
			c3.713-11.962,11.777-35.871,14.45-47.801c0.622-2.697,1.205-5.585,1.569-8.328c0.373-2.792,0.55-5.65,0.44-8.466
			c-0.091-2.59-0.463-5.239-0.904-7.792c-0.876-4.784-2.244-11.394-2.62-16.155c-0.563-5.815-0.701-16.43-1.038-22.313
			c-0.374-6.808-1.134-13.734-2.44-20.429c-1.454-7.493-3.707-14.93-6.484-22.035c-1.381-3.502-2.938-7.081-4.716-10.4
			c-1.323-2.485-2.902-4.975-4.455-7.323"/>
	</g>
	<g id="POLYLINE_00000002348150400088981500000002957344160828470918_">
		
			<path fill="none" stroke="#FB8604" stroke-width="2.75" stroke-linecap="round" stroke-linejoin="round" stroke-miterlimit="10" d="
			M851.253,198.124c-11.685,1.281-24.177,3.767-35.832,1.228c-3.801-0.851-7.598-2.313-10.505-4.977
			c-2.177-1.975-3.826-4.481-5.064-7.133c-1.617-3.367-2.581-7.609-3.818-11.126c-0.944-2.84-3.096-6.817-4.425-9.523
			c-0.895-1.857-1.736-3.793-2.317-5.772c-0.386-1.31-0.659-2.665-0.829-4.02c-0.387-3.099-0.26-6.272,0.246-9.35
			c0.38-2.502,1.339-5.581,2.03-8.032c0.423-1.595,0.821-3.242,0.751-4.902c-0.044-1.002-0.293-1.991-0.601-2.942
			c-0.384-1.158-0.942-2.59-1.203-3.767c-0.157-0.691-0.24-1.411-0.282-2.119c-0.134-2.648,0.21-5.628-0.136-8.261
			c-0.279-2.371-0.921-5.539-1.124-7.909c-0.224-2.281-0.224-4.622-0.045-6.906c0.187-2.343,0.543-4.721,1.132-6.998
			c0.435-1.653,0.992-3.304,1.823-4.803c0.472-0.839,1.04-1.646,1.781-2.27c0.522-0.44,1.136-0.775,1.795-0.959
			c1.537-0.436,3.187-0.033,4.562,0.71c1.422,0.762,2.618,1.888,3.678,3.091c2.208,2.476,4.464,6.301,6.323,9.077
			c2.367,3.545,5.135,6.895,8.491,9.546c1.671,1.314,3.538,2.555,5.679,2.884c1.146,0.185,2.316,0.012,3.423-0.305
			c2.103-0.596,4.232-1.629,6.415-1.901c3.109-0.404,6.115,1.127,9.189,1.256c3.406,0.123,6.326-2.084,8.695-4.303
			c1.609-1.517,3.054-3.234,4.212-5.12c1.052-1.689,1.857-3.553,2.523-5.426l1.811-5.229c0.721-1.963,1.547-3.935,2.668-5.704
			c1.233-1.93,2.808-3.686,4.745-4.928c1.19-0.747,2.578-1.321,4.007-1.216c0.907,0.067,1.772,0.443,2.495,0.985
			c1.17,0.878,2.025,2.112,2.708,3.391c0.809,1.529,1.384,3.186,1.839,4.852c0.697,2.565,1.156,5.322,1.541,7.954
			c0.529,3.656,1.214,10.628,2.144,14.122l0.816,3.03c0.235,0.917,0.431,1.87,0.499,2.815c0.074,0.956,0.017,1.957-0.058,2.913
			l-0.306,3.299c-0.114,1.437-0.179,2.91,0.006,4.342c0.127,0.993,0.393,1.972,0.744,2.909c0.873,2.33,2.425,4.838,3.504,7.082
			c1.047,2.155,1.889,4.444,2.462,6.771c0.783,3.196,1.08,6.549,0.594,9.814c-0.551,3.79-2.322,7.808-3.652,11.392
			c-0.722,1.973-1.387,4.019-1.651,6.108c-0.335,2.463-0.243,5.215-0.68,7.663c-0.296,1.728-0.926,3.404-1.905,4.863
			c-0.897,1.361-2.012,2.587-3.202,3.697c-1.593,1.481-3.373,2.794-5.214,3.95c-2.608,1.624-5.423,3.001-8.354,3.933
			c-2.539,0.814-5.223,1.276-7.868,1.582C857.513,197.479,851.253,198.124,851.253,198.124z"/>
	</g>
	<g id="POLYLINE_00000112596060144943459390000009372056788057239704_">
		
			<path fill="none" stroke="#FB8604" stroke-width="2.75" stroke-linecap="round" stroke-linejoin="round" stroke-miterlimit="10" d="
			M832.145,182.383c1.401,1.656,3.047,3.154,5.015,4.1c1.61,0.786,3.367,1.262,5.141,1.492c1.954,0.246,3.968,0.186,5.879-0.312
			c4.366-1.143,7.632-4.724,9.766-8.551"/>
	</g>
	<g id="POLYLINE_00000058565414855655467110000001414848434017043358_">
		
			<path fill="none" stroke="#FB8604" stroke-width="2.75" stroke-linecap="round" stroke-linejoin="round" stroke-miterlimit="10" d="
			M815.141,173.475c0.402,1.263,0.8,2.669,1.443,3.826c0.463,0.846,1.087,1.61,1.837,2.217c0.789,0.642,1.703,1.126,2.638,1.519
			c1.402,0.583,2.894,0.974,4.39,1.225c2.078,0.342,4.218,0.425,6.312,0.172c1.592-0.196,3.178-0.599,4.611-1.33
			c1.882-0.933,3.552-2.454,5.161-3.787c0.703-0.565,1.436-1.143,2.289-1.461c0.7-0.267,1.447-0.23,2.156-0.019
			c0.568,0.165,1.122,0.421,1.654,0.68c1.14,0.572,2.482,1.289,3.681,1.708c1.485,0.53,3.064,0.792,4.635,0.878
			c1.734,0.09,3.491-0.035,5.19-0.394c1.649-0.355,3.281-0.93,4.688-1.875c1.299-0.874,2.367-2.091,3.069-3.491
			c0.901-1.792,1.238-3.891,0.81-5.86c-0.365-1.718-1.261-3.28-2.338-4.65"/>
	</g>
	<g id="POLYLINE_00000024692244162844094430000004726531508654513567_">
		
			<path fill="none" stroke="#FB8604" stroke-width="2.75" stroke-linecap="round" stroke-linejoin="round" stroke-miterlimit="10" d="
			M463.031,246.964c5.095-2.405,14.53-7.499,19.62-9.903c3.143-1.479,6.602-2.925,9.838-4.185
			c8.116-3.022,39.262-14.937,46.84-17.551c5.826-1.982,12.369-4.091,18.328-5.586c3.594-0.903,7.322-1.466,11.028-1.595
			c5.406-0.161,11.971-0.3,17.28-1.112c2.684-0.379,9.604-1.534,12.201-1.709c1.041-0.079,2.107-0.092,3.148-0.002"/>
	</g>
	<g id="POLYLINE_00000132046317042578086540000017419641182440820154_">
		
			<path fill="none" stroke="#FB8604" stroke-width="2.75" stroke-linecap="round" stroke-linejoin="round" stroke-miterlimit="10" d="
			M528.467,262.776c7.621,3.983,15.304,8.283,21.94,13.789c3.232,2.721,6.248,5.843,8.266,9.587c0.81,1.492,1.453,3.103,1.974,4.717
			c0.46,1.414,0.854,2.885,1.043,4.361c0.223,1.679,0.191,3.392-0.018,5.07c-0.386,3.06-1.277,6.063-2.279,8.972
			c-1.948,5.596-4.618,11.453-7.124,16.833c-2.39,5.432-6.103,14.324-8.822,19.48c-0.665,1.322-2.233,3.925-2.997,5.23
			c-1.445,2.471-2.431,5.209-3.08,7.992c-0.29,1.346-0.589,2.802-0.36,4.176c0.128,0.758,0.475,1.466,0.941,2.073
			c0.559,0.733,1.251,1.365,1.955,1.956c1.148,0.955,2.494,1.896,3.723,2.75c2.84,1.953,6.299,4.186,9.247,5.975
			c2.716,1.628,5.913,3.449,8.718,4.903c0.473,0.241,0.982,0.494,1.479,0.682c0.621,0.241,1.287,0.359,1.949,0.412
			c1.704,0.125,3.443,0.083,5.132-0.179c0.756-0.122,1.883-0.378,2.649-0.425c0.432-0.03,0.873-0.018,1.302,0.042
			c1.016,0.14,1.985,0.53,2.892,0.996c1.051,0.548,2.058,1.201,3.007,1.91c1.398,1.077,2.873,2.299,3.416,4.042
			c0.182,0.566,0.229,1.172,0.267,1.762c0.03,0.518,0.038,1.049-0.055,1.562c-0.172,0.917-0.571,1.794-1.134,2.537
			c-0.388,0.502-0.88,0.92-1.418,1.254c-0.337,0.208-0.724,0.318-1.109,0.396c-0.873,0.175-1.819,0.226-2.708,0.282
			c-4.328,0.195-8.875,0.15-13.2-0.1c-3.517-0.212-7.067-0.706-10.43-1.783c-7.376-2.387-14.395-6.185-21.167-9.922
			c-4.239-2.436-10.456-5.902-14.566-8.47c-1.871-1.172-3.936-2.48-5.694-3.816c-1.361-1.036-2.669-2.187-3.708-3.553
			c-0.771-1.009-1.384-2.141-1.817-3.334c-0.579-1.585-0.859-3.278-0.975-4.958c-0.134-1.921-0.019-4.464-0.136-6.384
			c-0.099-1.844-0.378-3.707-1.021-5.444c-0.574-1.577-1.478-3.024-2.503-4.345c-0.934-1.202-2.001-2.349-3.08-3.422
			c-3.051-2.975-7.894-7.165-11.063-10.037c-2.201-1.913-4.573-3.838-6.956-5.509c-3.373-2.37-8.2-5.339-11.529-7.757
			c-4.177-3.011-8.018-6.574-11.474-10.385c-1.896-2.104-3.756-4.339-5.348-6.683c-0.961-1.429-1.862-2.938-2.547-4.52
			c-0.303-0.714-0.493-1.475-0.62-2.239c-0.471-3.028-0.432-6.442-0.489-9.511"/>
	</g>
	<g id="POLYLINE_00000125589972453599270360000013901986186463137430_">
		
			<path fill="none" stroke="#FB8604" stroke-width="2.75" stroke-linecap="round" stroke-linejoin="round" stroke-miterlimit="10" d="
			M449.826,283.91c-1.759-0.304-3.505-0.792-5.136-1.522c-1.548-0.689-3.006-1.598-4.31-2.68c-1.682-1.389-3.112-3.077-4.36-4.86
			c-1.663-2.39-3.045-5.011-4.128-7.712c-1.101-2.764-1.905-5.684-2.196-8.649c-0.263-2.643-0.112-5.339,0.516-7.922
			c0.645-2.663,1.779-5.214,3.318-7.481c1.438-2.113,3.252-4.001,5.408-5.387c1.968-1.276,4.244-2.057,6.568-2.341
			c3.221-0.387,6.611,0.067,9.491,1.607c1.781,0.962,3.286,2.381,4.508,3.984c1.048,1.365,1.926,2.9,2.721,4.425
			c0.69,1.359,1.453,2.864,2.027,4.271c1.4,3.337,2.184,6.914,2.625,10.497c0.459,3.947,0.556,8.024-0.383,11.909
			c-0.511,2.052-1.355,4.03-2.51,5.803c-1.676,2.562-4.047,4.814-6.998,5.789C454.684,284.41,452.19,284.323,449.826,283.91z"/>
	</g>
	<g id="POLYLINE_00000173856996918923191980000001118898309625305490_">
		
			<path fill="none" stroke="#FB8604" stroke-width="2.75" stroke-linecap="round" stroke-linejoin="round" stroke-miterlimit="10" d="
			M609.881,186.013c0.174-3.558-0.096-7.27-1.685-10.513c-0.859-1.788-2.126-3.373-3.44-4.847c-2.648-3.043-6.467-6.95-8.632-10.311
			c-0.373-0.607-0.718-1.251-0.895-1.945c-0.099-0.397-0.14-0.823-0.022-1.219c0.084-0.288,0.263-0.545,0.5-0.729
			c0.449-0.344,1.036-0.477,1.594-0.433c0.517,0.039,1.022,0.193,1.507,0.371c0.889,0.331,1.775,0.784,2.614,1.226
			c1.257,0.687,2.943,1.639,4.221,2.238c1.183,0.565,2.496,1.114,3.724,1.577c6.655,2.468,13.777,3.926,20.753,5.185"/>
	</g>
	<g id="POLYLINE_00000136377503766855470610000002999367049610258103_">
		
			<path fill="none" stroke="#FB8604" stroke-width="2.75" stroke-linecap="round" stroke-linejoin="round" stroke-miterlimit="10" d="
			M632.264,221.719c-2.308,3.801-5.942,6.875-10.24,8.137c-1.998,0.588-4.156,0.774-6.193,0.28
			c-0.463-0.113-0.932-0.264-1.372-0.447c-0.48-0.194-1.131-0.549-1.595-0.783c-0.771-0.389-1.646-0.71-2.517-0.515
			c-0.22,0.05-0.497,0.12-0.629,0.318c-0.104,0.168-0.091,0.377-0.079,0.566c0.012,0.223,0.066,0.497,0.004,0.715
			c-0.044,0.172-0.157,0.321-0.304,0.419c-0.235,0.158-0.521,0.215-0.799,0.241c-0.596,0.047-1.197-0.045-1.776-0.182
			c-0.822-0.2-1.626-0.534-2.291-1.065c-0.584-0.463-1.04-1.076-1.351-1.75c-0.457-0.984-0.632-2.079-0.656-3.157
			c-0.03-1.54,0.232-3.083,0.626-4.568c0.346-1.293,0.879-2.835,0.897-4.175c0.022-1.185-0.28-2.353-0.641-3.473l-0.744-2.187
			c-0.72-2.294-1.333-4.694-1.751-7.062c-0.322-1.991-0.536-4.098,0.094-6.05c0.885-2.673,3.241-4.534,5.257-6.363
			c0.602-0.544,1.175-1.137,1.627-1.812c0.336-0.493,0.657-1.1,1.016-1.576c0.469-0.638,1.023-1.231,1.595-1.779
			c2.853-2.667,6.271-4.695,9.686-6.555c1.674-0.895,3.706-1.894,5.434-2.681c0.121-0.053,0.242-0.114,0.356-0.181
			c0.377-0.218,0.716-0.504,1.012-0.821c0.777-0.84,1.3-1.885,1.721-2.94c0.828-2.129,1.268-4.422,1.636-6.67
			c0.235-1.392,0.716-5.412,1.079-6.811c0.214-0.916,0.505-1.833,0.954-2.664c0.36-0.672,0.824-1.297,1.392-1.806
			c0.531-0.478,1.156-0.855,1.825-1.108c0.83-0.317,1.731-0.45,2.617-0.39c0.936,0.061,1.854,0.33,2.7,0.73
			c1.449,0.683,2.695,1.739,3.833,2.853c2.187,2.164,4.13,4.739,5.965,7.209c2.639,3.601,5.187,7.399,7.263,11.354
			c1.063,1.976,1.944,4.158,2.906,6.188c0.829,1.727,2.127,4.322,2.828,6.052c0.587,1.433,1.306,3.787,1.815,5.273
			c0.469,1.381,1.045,2.752,1.738,4.036c1.373,2.58,3.231,5.215,4.457,7.869c1.152,2.478,1.905,5.149,2.412,7.83
			c0.654,3.446,0.874,7.467,1.73,10.869c0.62,2.495,1.813,5.297,2.408,7.798c0.598,2.425,0.739,5.416,1.141,7.879
			c0.147,0.918,0.347,1.862,0.605,2.756c0.287,1.021,0.839,2.677,0.984,3.737c0.221,1.356,0.067,2.747-0.224,4.08
			c-0.301,1.459-1.398,4.954-1.803,6.406c-1.564,5.232-3.415,10.963-5.354,16.064c-1.047,2.835-2.787,6.934-3.748,9.797
			c-0.355,1.098-0.656,2.237-0.838,3.377c-0.449,2.812-0.172,5.702,0.41,8.475c1.022,4.836,2.922,9.505,5.661,13.625
			c3.044,4.61,7.375,9.249,10.026,14.114c2.05,3.748,3.629,8.386,5.634,12.155c1.23,2.345,3.325,5.921,4.455,8.341
			c0.851,1.796,1.554,3.707,2.177,5.592l2.01,6.337c0.692,2.136,1.597,4.386,2.543,6.428c0.362,0.852,0.701,1.751,0.713,2.688
			c0.007,0.617-0.155,1.224-0.37,1.798c-0.396,1.045-1.007,2.126-1.345,3.193c-0.226,0.682-0.322,1.495-0.499,2.191
			c-0.131,0.522-0.351,1.037-0.745,1.415c-0.557,0.546-1.312,0.836-2.062,1.006c-1.064,0.232-2.172,0.245-3.251,0.125
			c-1.395-0.163-2.785-0.608-3.924-1.447c-1.449-1.042-2.229-2.724-2.836-4.352l-1.01-2.796c-1.21-3.195-3.197-7.573-4.558-10.741
			c-1.492-3.351-3.127-6.824-5.025-9.958c-2.407-4.03-5.469-7.685-8.991-10.787c-1.742-1.54-3.63-2.984-5.565-4.273
			c-2.018-1.382-6.343-3.775-8.494-5.026c-2.998-1.768-5.985-3.73-8.285-6.375c-1.276-1.464-2.32-3.148-3.28-4.831
			c-1.224-2.198-3.218-5.925-4.566-7.989c-1.319-2.051-2.764-4.084-4.359-5.929"/>
	</g>
	<g id="POLYLINE_00000057126320334538233540000016192085709619060610_">
		
			<path fill="none" stroke="#FB8604" stroke-width="2.75" stroke-linecap="round" stroke-linejoin="round" stroke-miterlimit="10" d="
			M608.014,230.66c1.783,1.51,3.676,2.968,5.707,4.126c1.787,1.02,3.741,1.812,5.792,2.074c1.45,0.191,2.937,0.131,4.386-0.043
			c2.182-0.274,4.34-0.87,6.342-1.781c1.152-0.521,2.261-1.18,3.283-1.923c1.344-0.967,2.748-2.165,4.237-2.899
			c1.174-0.599,2.483-0.885,3.79-0.99c2.217-0.197,5.051,0.039,7.287,0.121c0.888,0.027,1.815,0.054,2.695-0.063
			c0.622-0.081,1.239-0.235,1.824-0.461c1.25-0.48,2.373-1.254,3.407-2.097c1.674-1.378,3.199-3.006,4.637-4.626"/>
	</g>
	<g id="POLYLINE_00000114767865064063577070000008922532303267283621_">
		
			<path fill="none" stroke="#FB8604" stroke-width="2.75" stroke-linecap="round" stroke-linejoin="round" stroke-miterlimit="10" d="
			M667.916,255.689c-1.8,4.891-4.328,9.635-8.071,13.318c-2.143,2.178-5.139,4.149-7.655,5.892
			c-2.137,1.503-4.081,3.308-5.797,5.276c-2.984,3.361-6.346,8.848-8.991,12.516c-1.527,2.142-3.305,4.487-4.982,6.513
			c-1.409,1.704-3.975,4.624-5.192,6.425c-0.79,1.144-1.512,2.363-1.992,3.672c-0.45,1.219-0.661,2.521-0.713,3.815
			c-0.044,1.01-0.002,2.067,0.067,3.075c0.882,9.048,2.805,23.667,3.716,32.716c0.231,2.348,0.651,7.044,0.814,9.365
			c0.114,1.613,0.466,7.664,0.644,9.131c0.137,1.254,0.346,2.528,0.662,3.749c0.532,2.03,1.269,4.042,2.205,5.921
			c0.486,0.95,1.029,1.899,1.785,2.662c0.451,0.456,0.991,0.83,1.59,1.064c0.871,0.347,1.94,0.434,2.854,0.625
			c1.229,0.241,2.385,0.814,3.341,1.62c0.549,0.462,1.036,1.004,1.415,1.615c0.731,1.182,1.111,2.55,1.325,3.913
			c0.337,2.132,0.184,4.356-0.57,6.385c-0.065,0.175-0.169,0.339-0.322,0.45c-0.301,0.216-0.678,0.29-1.035,0.358
			c-0.585,0.105-1.227,0.144-1.821,0.183c-2.688,0.155-7.402,0.126-10.145,0.143c-2.138-0.042-4.637,0.088-6.731-0.35
			c-0.711-0.155-1.421-0.406-1.997-0.862c-0.487-0.381-0.865-0.886-1.184-1.412c-0.627-1.048-1.104-2.237-1.58-3.36
			c-1.243-3.046-6.474-16.377-7.69-19.561c-0.528-1.45-1.148-3.167-1.593-4.643c-1.564-5.06-2.94-12.073-4.359-17.18
			c-2.447-8.736-6.613-19.839-9.558-28.466c-1.499-4.052-3.254-9.311-5.201-13.171c-1.388-2.994-2.448-6.206-2.65-9.517
			c-0.274-4.201,0.9-8.419,3.03-12.027c0.946-1.623,2.075-3.17,3.272-4.615c3.756-4.421,8.934-9.517,12.742-13.895"/>
	</g>
	<g id="POLYLINE_00000114041860671300235400000005831009996356940173_">
		
			<path fill="none" stroke="#FB8604" stroke-width="2.75" stroke-linecap="round" stroke-linejoin="round" stroke-miterlimit="10" d="
			M556.445,316.832c3.796-2.299,7.924-4.292,11.994-6.066c6.805-2.941,14.058-5.489,21.124-7.728"/>
	</g>
	<g id="POLYLINE_00000146466931923290341300000008625457669714120071_">
		
			<path fill="none" stroke="#FB8604" stroke-width="2.75" stroke-linecap="round" stroke-linejoin="round" stroke-miterlimit="10" d="
			M555.211,394.487c-0.968,0.663-2.073,1.129-3.227,1.339c-0.316,0.058-0.641,0.099-0.962,0.122c-0.208,0.019-0.45,0.021-0.66,0.023
			c0,0-20.337-0.032-20.337-0.032c-1.601-0.039-3.302-0.003-4.834-0.517c-0.667-0.214-1.328-0.514-1.956-0.823
			c-2.765-1.397-5.741-3.273-8.398-4.886c-3.149-1.941-6.465-4.05-9.382-6.316c-4.436-3.45-8.709-7.523-12.702-11.478
			c-1.454-1.478-2.974-3.07-4.272-4.686c-0.939-1.174-1.822-2.421-2.493-3.77c-0.477-0.97-0.853-2.014-0.931-3.099
			c-0.066-0.867,0.077-1.741,0.335-2.568c0.188-0.648,0.492-1.342,0.734-1.972c0.379-0.924,0.792-1.88,1.282-2.75
			c0.545-1.027,1.527-2.287,2.203-3.241c0.483-0.693,0.947-1.418,1.259-2.206c0.299-0.75,0.465-1.553,0.519-2.359
			c0.107-1.694-0.201-3.396-0.657-5.023c-1.291-4.51-3.744-8.655-6.131-12.662"/>
	</g>
	<g id="POLYLINE_00000070104566870479054090000011070177842930896540_">
		
			<path fill="none" stroke="#FB8604" stroke-width="2.75" stroke-linecap="round" stroke-linejoin="round" stroke-miterlimit="10" d="
			M270.285,117.42c-2.117,0.323-4.294,0.407-6.423,0.158c-1.644-0.194-3.282-0.593-4.788-1.291c-1.415-0.65-2.685-1.605-3.749-2.739
			c-2.123-2.272-3.522-5.121-4.723-7.962c-1.775-4.289-3.218-8.935-4.492-13.399c-1.839-6.517-3.482-13.664-4.777-20.32
			c-0.531-2.858-1.111-5.957-1.316-8.851c-0.067-1.017-0.099-2.071,0-3.087c0.058-0.572,0.156-1.15,0.354-1.691
			c0.169-0.462,0.424-0.906,0.808-1.222c0.349-0.292,0.795-0.454,1.248-0.479c0.615-0.036,1.224,0.144,1.775,0.404
			c0.87,0.416,1.644,1.02,2.365,1.654c2.866,2.612,5.174,5.885,7.324,9.094c0.809,1.262,3.13,4.919,3.941,6.078
			c0.891,1.272,1.844,2.542,2.997,3.59c0.78,0.706,1.681,1.313,2.7,1.609c1.558,0.461,3.233,0.19,4.733-0.358
			c4.528-1.69,8.048-5.617,12.091-8.133c1.879-1.199,3.945-2.151,6.135-2.607c5.42-1.127,11.252-0.289,16.716-1.024
			c3.273-0.399,6.381-1.655,9.298-3.146l4.011-2.083c2.881-1.453,6.814-3.088,9.558-0.531c1.191,1.096,2.002,2.562,2.505,4.089"/>
	</g>
	<g id="POLYLINE_00000004547939404704067440000008716846272856486054_">
		
			<path fill="none" stroke="#FB8604" stroke-width="2.75" stroke-linecap="round" stroke-linejoin="round" stroke-miterlimit="10" d="
			M309.243,75.315c0.152,1.886,0.759,3.775,1.934,5.277c0.798,1.024,1.879,1.857,3.137,2.219c2.393,0.704,4.865-0.293,6.944-1.453
			c2.217-1.257,4.275-2.837,6.072-4.644c0.971-1.005,1.921-2.088,2.494-3.375c0.255-0.582,0.412-1.213,0.431-1.85
			c0.024-0.637-0.09-1.275-0.243-1.891c-0.393-1.477-0.742-3.056-1.434-4.427"/>
	</g>
	<g id="POLYLINE_00000119826930193256323600000002996713921173490051_">
		
			<path fill="none" stroke="#FB8604" stroke-width="2.75" stroke-linecap="round" stroke-linejoin="round" stroke-miterlimit="10" d="
			M330.247,70.982c2.648,3.107,4.25,7.303,3.664,11.405c-0.304,2.146-1.185,4.177-2.318,6.012c-2.181,3.612-6.999,8.904-9.7,12.212
			c-2.031,2.509-4.11,5.105-5.57,7.994c-1.012,2.01-1.657,4.233-1.699,6.492c-0.066,2.659,0.678,5.272,1.72,7.697
			c1.408,3.274,3.412,6.311,5.944,8.825c1.524,1.512,3.255,2.836,5.133,3.878c3.38,1.862,7.374,2.97,10.99,4.29
			c2.677,0.975,5.351,2.115,7.699,3.747c1.55,1.069,2.947,2.37,4.114,3.848c1.642,2.065,2.916,4.424,3.972,6.835
			c1.617,3.718,2.763,7.698,3.695,11.639c1.568,6.795,2.693,14.338,3.728,21.243c1.006,7.012,1.263,14.204,0.795,21.272
			c-0.522,7.966-1.951,15.932-4.424,23.528c-2.478,7.572-5.988,14.879-10.125,21.681c-4.25,6.96-9.27,13.564-14.928,19.44"/>
	</g>
	<g id="POLYLINE_00000116225123497980132120000002158873578286136996_">
		
			<path fill="none" stroke="#FB8604" stroke-width="2.75" stroke-linecap="round" stroke-linejoin="round" stroke-miterlimit="10" d="
			M253.411,111.082c-1.103,5.172-1.118,10.709,0.721,15.715c1.336,3.665,3.548,6.966,5.902,10.051
			c3.279,4.3,9.511,11.187,12.749,15.516c0.816,1.093,1.652,2.272,2.347,3.445c0.746,1.263,1.39,2.623,1.633,4.08
			c0.271,1.541,0.012,3.119-0.389,4.613c-0.281,1.151-1.356,4.331-1.704,5.489c-0.556,1.834-1.019,3.737-1.239,5.642
			c-0.309,2.471-0.381,5.572-0.961,7.991c-0.298,1.26-0.758,2.503-1.498,3.574c-0.704,1.023-1.621,1.889-2.584,2.665
			c-2.079,1.679-4.66,3.091-6.617,4.919c-1.56,1.453-2.637,3.342-3.544,5.251c-0.987,2.133-2.324,5.093-3.481,7.105
			c-1.421,2.628-8.089,13.341-9.745,16.083c-2.265,3.808-4.601,8.001-6.562,11.972c-2.695,5.448-5.258,11.517-7.479,17.183
			c-3.264,8.143-8.64,24.269-11.535,32.762c-1.75,5.281-6.816,20.142-8.286,25.265c-0.995,3.407-1.994,6.971-2.488,10.488
			c-0.263,1.823-0.389,3.802-0.468,5.644c-0.519,13.723-0.171,29.587,0.288,43.364c0.041,2.909,0.029,6.069-0.194,8.958
			c-0.193,2.691-0.684,6.461-0.813,9.141c-0.05,1.291-0.066,2.617,0.247,3.879c0.209,0.846,0.622,1.662,1.29,2.237
			c1.01,0.876,2.348,1.244,3.637,1.485c2.269,0.396,4.648,0.42,6.947,0.437c0,0,9.105-0.112,9.105-0.112
			c1.807,0.001,8.019,0.063,9.703-0.012c1.34-0.052,2.719-0.145,4.041-0.377c1.179-0.211,2.366-0.525,3.415-1.119
			c0.477-0.273,0.923-0.609,1.292-1.017c0.375-0.412,0.668-0.897,0.886-1.408c0.404-0.95,0.569-1.988,0.631-3.013
			c0.097-1.739-0.104-3.507-0.354-5.227c-0.248-1.479-0.437-3.148-0.885-4.578c-0.194-0.6-0.458-1.19-0.854-1.686
			c-0.804-1.032-2.126-1.448-3.371-1.65c-2.234-0.339-4.526-0.155-6.759,0.114c-5.236,0.675-10.462,2.057-15.095,4.638"/>
	</g>
	<g id="POLYLINE_00000162341736917092245260000015297364654185929615_">
		
			<path fill="none" stroke="#FB8604" stroke-width="2.75" stroke-linecap="round" stroke-linejoin="round" stroke-miterlimit="10" d="
			M247.812,392.437c7.304,1.018,15.111,0.497,21.69-3.077c3.008-1.627,5.716-3.793,8.097-6.239c2.84-2.925,5.262-6.296,7.174-9.896"
			/>
	</g>
	<g id="POLYLINE_00000061448637562074157410000009448682118682775462_">
		
			<path fill="none" stroke="#FB8604" stroke-width="2.75" stroke-linecap="round" stroke-linejoin="round" stroke-miterlimit="10" d="
			M349.343,251.082c5.208-3.717,10.393-7.807,15.074-12.164c9.511-8.862,18.019-18.933,25.392-29.632
			c2.694-3.958,9.261-14.087,12.104-17.701c1.136-1.468,2.361-2.954,3.675-4.265c0.839-0.84,1.764-1.629,2.734-2.314
			c1.198-0.866,2.973-1.843,4.261-2.596c0.77-0.461,1.535-0.96,2.221-1.538c0.635-0.533,1.223-1.155,1.773-1.775
			c1.381-1.568,2.766-3.352,4.43-4.624c1.973-1.545,4.415-2.341,6.834-2.873c3.451-0.76,7.799-1.018,11.345-1.289
			c1.212-0.103,2.48-0.224,3.669-0.478c1.091-0.234,2.181-0.586,3.12-1.202c0.617-0.403,1.158-0.927,1.572-1.538
			c0.557-0.822,0.904-1.773,1.147-2.731c0.635-2.643,0.602-5.422,0.266-8.107c-0.201-1.384-0.447-2.803-1.059-4.072
			c-0.437-0.905-1.152-1.637-1.987-2.183c-1.521-0.99-3.244-1.67-4.963-2.233c-2.427-0.767-4.972-1.264-7.522-1.287
			c-1.277-0.009-2.572,0.115-3.811,0.43c-1.424,0.357-2.794,0.944-4.082,1.643c-2.278,1.207-4.982,3.273-7.155,4.68
			c-1.573,1.031-3.285,1.972-4.965,2.819c-3.884,1.951-9.163,4.095-12.671,6.662c-1.529,1.076-3.035,2.33-4.436,3.569
			c-1.288,1.082-14.007,13.224-15.546,14.665c-3.258,2.904-6.607,5.912-10.424,8.063c-2.383,1.375-5.509,2.397-8.11,3.315"/>
	</g>
	<g id="POLYLINE_00000070076553478326683180000008747295610926671526_">
		
			<path fill="none" stroke="#FB8604" stroke-width="2.75" stroke-linecap="round" stroke-linejoin="round" stroke-miterlimit="10" d="
			M280.138,215.177c1.25,14.144,3.359,28.453,7.942,41.932c3.675,11.057,9.191,22.502,12.707,33.609
			c1.799,5.659,2.938,12.741,3.969,18.618c0.618,3.468,1.519,7.422,2.385,10.84c2.139,8.029,6.442,24.225,8.573,32.267
			c1.164,4.035,2.398,8.489,4.043,12.339c0.597,1.422,1.501,2.921,2.303,4.245c0.446,0.757,0.849,1.552,1.144,2.379
			c0.655,1.87,0.951,3.895,1.215,5.854c0.493,3.646,0.624,8.035,1.115,11.685c0.133,0.852,0.321,1.71,0.625,2.518
			c0.528,1.415,1.445,2.769,2.823,3.465c0.899,0.458,1.914,0.637,2.908,0.754c1.77,0.201,3.988,0.221,5.782,0.287
			c2.911,0.063,6.296,0.097,9.197-0.013c1.818-0.075,3.739-0.179,5.538-0.447c0.872-0.138,1.765-0.296,2.586-0.632
			c0.523-0.216,1.023-0.55,1.309-1.051c0.209-0.357,0.31-0.766,0.366-1.173c0.092-0.691,0.076-1.41,0.064-2.106
			c-0.053-1.882-0.251-3.783-0.638-5.627c-0.278-1.285-0.649-2.572-1.24-3.75c-0.401-0.806-0.943-1.543-1.609-2.149
			c-1.022-0.963-2.444-1.672-3.653-2.377c-0.598-0.351-1.195-0.733-1.724-1.181c-0.567-0.479-1.074-1.039-1.514-1.637
			c-0.81-1.1-1.418-2.346-1.898-3.621c-0.813-2.17-1.267-4.486-1.604-6.774c-0.435-2.998-0.89-7.908-1.378-10.886
			c-0.444-2.809-1.125-5.73-1.845-8.481l-3.678-13.292c-2.323-8.812-4.111-17.926-4.539-27.042
			c-0.192-4.011-0.092-8.24,0.124-12.253c0.404-5.092,2.212-35.729,2.858-40.085c0.347-2.793,0.96-5.806,1.568-8.561
			c0.429-1.944,1.94-8.607,2.266-10.493c0.474-2.482,0.912-5.349,1.241-7.86c1.647-13.229,2.179-26.797,1.611-40.116"/>
	</g>
	<g id="POLYLINE_00000140701485645070807310000011982186626022320555_">
		
			<path fill="none" stroke="#FB8604" stroke-width="2.75" stroke-linecap="round" stroke-linejoin="round" stroke-miterlimit="10" d="
			M324.913,382.166c-9.058-0.034-19.654,0.14-28.647-0.527c-0.666-0.081-1.357-0.158-1.969-0.449
			c-0.664-0.328-1.24-0.862-1.551-1.54c-0.367-0.787-0.396-1.689-0.285-2.538c0.177-1.31,0.698-2.558,1.385-3.681
			c0.496-0.813,1.098-1.607,1.69-2.353c2.751-3.334,6.458-7.647,9.044-11.083c1.133-1.492,2.314-3.102,3.242-4.73
			c2.14-3.733,3.821-8.045,5.421-12.042"/>
	</g>
	<g id="POLYLINE_00000124151479647168781530000017082915037280619156_">
		
			<path fill="none" stroke="#FB8604" stroke-width="2.75" stroke-linecap="round" stroke-linejoin="round" stroke-miterlimit="10" d="
			M236.161,375.99c3.714-1.724,7.547-3.548,10.908-5.891c5.025-3.439,9.1-8.103,12.547-13.082c3.834-5.55,7.061-11.631,9.565-17.893
			c1.966-4.959,3.516-10.138,4.299-15.423"/>
	</g>
	<g id="POLYLINE_00000120556251275349423560000011307321121294787254_">
		
			<path fill="none" stroke="#FB8604" stroke-width="2.75" stroke-linecap="round" stroke-linejoin="round" stroke-miterlimit="10" d="
			M208.454,375.327c-2.637,0.693-8.61,2.336-11.182,2.866c-2.686,0.589-5.62,1.085-8.35,1.418
			c-13.414,1.655-43.972,1.15-57.825,1.461c-8.073,0.209-34.8,1.393-42.368,1.139c-1.909-0.039-4.04-0.129-5.944-0.267
			c-1.466-0.106-5.154-0.425-6.563-0.448c-1.281-0.028-2.591-0.006-3.846,0.276c-0.959,0.216-1.901,0.621-2.615,1.311
			c-0.522,0.5-0.912,1.126-1.208,1.783c-0.416,0.93-0.659,1.936-0.793,2.944c-0.116,0.896-0.148,1.811-0.08,2.712
			c0.05,0.613,0.138,1.235,0.337,1.819c0.127,0.37,0.31,0.727,0.566,1.024c0.25,0.294,0.567,0.527,0.905,0.711
			c0.745,0.399,1.577,0.63,2.394,0.832c1.636,0.388,3.368,0.611,5.04,0.785c2.048,0.204,4.26,0.329,6.317,0.38
			c28.4,0.077,100.869-0.032,128.402-0.688"/>
	</g>
	<g id="POLYLINE_00000083073576448572772710000006319773970406426784_">
		
			<path fill="none" stroke="#FB8604" stroke-width="2.75" stroke-linecap="round" stroke-linejoin="round" stroke-miterlimit="10" d="
			M261.682,392.172c0.891,0.665,1.83,1.309,2.846,1.767c1.379,0.627,2.866,1.008,4.35,1.291c1.927,0.362,3.956,0.546,5.913,0.648
			c11.29,0.287,45.708-0.105,56.7-0.248"/>
	</g>
</g>
<g id="_x32_D_x24_AG-OUTLINE">
	<g id="POLYLINE_00000130618205982164747800000001489048068291482257_">
		
			<path fill="none" stroke="#FB8604" stroke-width="3.5" stroke-linecap="round" stroke-linejoin="round" stroke-miterlimit="10" d="
			M884.002,179.744c0.485-2.459,0.391-5.212,0.701-7.695c0.247-2.178,0.931-4.314,1.684-6.365c1.331-3.6,3.098-7.595,3.652-11.392
			c0.486-3.265,0.188-6.618-0.594-9.814c-0.573-2.327-1.415-4.617-2.462-6.771c-1.079-2.245-2.629-4.749-3.504-7.082
			c-0.351-0.936-0.617-1.916-0.744-2.909c-0.184-1.432-0.119-2.907-0.006-4.342l0.306-3.299c0.075-0.957,0.132-1.957,0.058-2.913
			c-0.068-0.945-0.264-1.898-0.499-2.815l-0.816-3.03c-0.925-3.461-1.621-10.506-2.144-14.122c-0.387-2.634-0.843-5.387-1.541-7.954
			c-0.455-1.666-1.029-3.323-1.839-4.852c-0.684-1.278-1.538-2.513-2.708-3.391c-0.723-0.542-1.588-0.918-2.495-0.985
			c-1.429-0.105-2.817,0.469-4.007,1.216c-1.937,1.242-3.513,2.998-4.745,4.928c-1.121,1.769-1.948,3.742-2.668,5.705l-1.811,5.229
			c-0.667,1.873-1.47,3.736-2.523,5.426c-1.158,1.886-2.603,3.603-4.212,5.12c-2.369,2.219-5.29,4.426-8.695,4.303
			c-3.074-0.129-6.08-1.659-9.189-1.256c-2.182,0.272-4.314,1.306-6.415,1.901c-1.107,0.318-2.277,0.49-3.423,0.305
			c-2.141-0.329-4.007-1.57-5.679-2.884c-3.356-2.651-6.125-6.001-8.491-9.546c-1.877-2.783-4.109-6.589-6.323-9.077
			c-1.06-1.203-2.256-2.329-3.678-3.091c-1.376-0.743-3.026-1.146-4.562-0.71c-0.658,0.184-1.272,0.52-1.795,0.959
			c-0.708,0.596-1.259,1.361-1.718,2.16c-0.817,1.437-1.37,3.023-1.806,4.613c-0.639,2.371-1.017,4.851-1.212,7.298
			c-0.178,2.285-0.179,4.625,0.045,6.906c0.201,2.369,0.846,5.541,1.124,7.909c0.346,2.634,0.002,5.615,0.136,8.261
			c0.042,0.706,0.124,1.428,0.282,2.119c0.26,1.19,0.825,2.611,1.203,3.767c0.316,0.973,0.568,1.987,0.604,3.014
			c0.055,1.635-0.337,3.26-0.754,4.83c-0.694,2.468-1.648,5.522-2.03,8.032c-0.506,3.078-0.633,6.251-0.246,9.35
			c0.17,1.354,0.444,2.71,0.829,4.02c0.581,1.979,1.423,3.916,2.317,5.772c0.838,1.706,2.928,5.735,3.619,7.432
			c0.736,1.736,1.344,3.658,1.889,5.466l-0.687,6.63c-1.258,10.5-4.258,28.326-4.813,38.741c-0.162,2.95-0.183,5.994,0.04,8.941
			c-1.667,3.535-3.78,7.669-4.697,11.458c-0.451,1.755-0.738,3.569-0.885,5.374c-0.311,3.364-0.221,10.73-0.276,14.189
			c-0.147,4.893-0.458,10.004-2.704,14.447c-1.75,3.522-4.719,6.91-6.977,10.123c-1.563,2.224-2.946,4.611-3.926,7.151
			c-1.93,5.041-2.684,10.476-3.018,15.839c-0.361,6.359-0.045,12.859,0.747,19.176c1.122,9.034,3.44,17.973,7.024,26.347
			c1.316,3.085,2.856,6.258,4.477,9.193c0.367,0.649,0.766,1.338,1.215,1.936c0.636,0.868,1.446,1.614,2.388,2.14
			c-2.202-0.131-4.449-0.064-6.6,0.458c-1.789,0.429-3.506,1.196-4.991,2.287c-2.399,1.767-4.295,4.172-5.669,6.802
			c-1.713,3.307-2.621,7.236-1.654,10.903c0.25,0.894,0.631,1.772,1.232,2.487c0.337,0.401,0.749,0.738,1.207,0.991
			c0.807,0.448,1.727,0.651,2.635,0.773c1.122,0.151,2.362,0.177,3.496,0.213c8.914,0.045,24.159-0.238,33.051-0.05
			c2.694-0.035,5.482-0.073,8.139-0.539c1.697-0.293,3.378-0.835,4.991-1.434c0.571,0.779,1.342,1.439,2.265,1.752
			c0.526,0.184,1.086,0.269,1.641,0.308c1.159,0.087,3.276-0.04,4.457-0.063c5.765-0.123,14.202,0.481,19.894-0.173
			c1.259-0.172,2.577-0.42,3.622-1.186c0.477,0.386,1.017,0.697,1.59,0.913c0.591,0.224,1.223,0.342,1.85,0.404
			c0.639,0.063,1.31,0.072,1.953,0.064c1.951-0.041,4.773-0.214,6.713-0.175c3.836,0.047,8.367,0.331,12.183,0.083
			c1.288-0.089,2.608-0.236,3.864-0.543c4.046,0.486,8.237,0.615,12.309,0.607c3.174-0.039,6.707-0.09,9.859-0.397
			c0.943-0.106,1.901-0.248,2.802-0.552c0.585-0.2,1.156-0.479,1.614-0.901c0.891-0.811,1.183-2.047,1.334-3.198
			c0.245-2.065,0.18-4.187-0.048-6.251c-0.253-2.135-0.708-4.278-1.581-6.251c-0.585-1.309-1.387-2.557-2.516-3.46
			c5.665-8.719,10.305-18.243,13.469-28.154c2.217-6.972,3.702-14.281,4.664-21.528c0.879-6.88,1.623-13.932,0.9-20.859
			c-0.354-3.328-1.109-6.642-2.432-9.723c-1.671-4.02-4.443-8.124-6.774-11.808c-1.613-2.549-3.14-5.235-4.127-8.094
			c-0.721-2.059-1.17-4.236-1.303-6.414c-0.204-3.143,0.298-7.522,0.49-10.678c0.162-2.726,0.186-5.53-0.066-8.25
			c-0.326-3.578-1.043-7.189-1.958-10.662c-1.826-6.815-4.469-13.475-7.921-19.632c-1.453-7.406-3.689-14.756-6.435-21.783
			c-1.381-3.504-2.938-7.08-4.716-10.4C887.135,184.584,885.555,182.09,884.002,179.744z"/>
	</g>
	<g id="POLYLINE_00000030477662909521078460000013028969218153702826_">
		
			<path fill="none" stroke="#FB8604" stroke-width="3.5" stroke-linecap="round" stroke-linejoin="round" stroke-miterlimit="10" d="
			M463.031,246.964c-3.083-6.326-6.28-10.967-13.838-11.675c-3.086-0.27-6.277,0.263-9.036,1.697
			c-3.42,1.789-6.082,4.807-7.888,8.183c-1.434,2.684-2.332,5.659-2.602,8.691c-0.281,3.07,0.07,6.184,0.856,9.159
			c0.941,3.524,2.435,6.922,4.327,10.038c1.34,2.178,2.899,4.27,4.787,6.004c1.271,1.166,2.704,2.168,4.245,2.944
			c1.592,0.806,3.314,1.373,5.059,1.737c0.059,3.079,0.018,6.478,0.489,9.511c0.118,0.703,0.286,1.407,0.551,2.07
			c1.598,3.72,4.161,6.969,6.774,10.028c3.42,3.935,7.23,7.624,11.383,10.781c5.033,3.823,11.557,7.46,16.462,11.449
			c2.387,4.008,4.84,8.151,6.131,12.662c0.456,1.627,0.764,3.328,0.657,5.023c-0.054,0.805-0.22,1.608-0.519,2.359
			c-0.311,0.788-0.776,1.514-1.259,2.206c-0.724,1.004-1.702,2.289-2.275,3.372c-0.548,0.995-1.001,2.088-1.419,3.143
			c-0.237,0.595-0.479,1.236-0.64,1.853c-0.205,0.779-0.29,1.596-0.198,2.398c0.112,1.002,0.467,1.965,0.91,2.865
			c0.715,1.438,1.668,2.758,2.679,4.001c1.56,1.905,3.389,3.77,5.139,5.506c3.678,3.578,7.595,7.289,11.648,10.428
			c2.915,2.264,6.235,4.378,9.382,6.316c2.659,1.611,5.63,3.487,8.398,4.886c0.628,0.308,1.29,0.609,1.956,0.823
			c1.529,0.513,3.238,0.483,4.834,0.517c0,0,20.337,0.032,20.337,0.032s0.167-0.001,0.167-0.001s0.083-0.002,0.083-0.002
			c0.098-0.005,0.23-0.007,0.329-0.014c0.374-0.023,0.754-0.07,1.122-0.142c1.126-0.216,2.203-0.676,3.149-1.324
			c2.878,0.776,5.882,1.141,8.853,1.326c3.63,0.22,7.534,0.262,11.17,0.178c1.622-0.072,3.386-0.065,4.973-0.412
			c0.366-0.086,0.721-0.227,1.029-0.444c0.405-0.27,0.783-0.588,1.101-0.957c0.339-0.392,0.612-0.842,0.832-1.311
			c0.201-0.433,0.362-0.891,0.452-1.36c0.084-0.433,0.098-0.882,0.082-1.322c-0.03-0.599-0.062-1.217-0.208-1.801
			c-0.117-0.473-0.309-0.928-0.557-1.347c-0.568-0.955-1.403-1.722-2.251-2.425c-1.239-1.002-2.582-1.899-4.012-2.606
			c-1.237-0.607-2.584-1.001-3.973-0.869c-0.941,0.075-2.108,0.376-3.045,0.49c-1.258,0.16-2.552,0.198-3.818,0.155
			c-0.932-0.038-1.889-0.118-2.764-0.461c-0.5-0.189-1.003-0.44-1.479-0.682c-2.807-1.455-6-3.275-8.718-4.903
			c-2.951-1.791-6.405-4.02-9.247-5.975c-1.23-0.855-2.574-1.794-3.723-2.75c-0.704-0.591-1.396-1.223-1.955-1.956
			c-0.481-0.626-0.833-1.36-0.953-2.144c-0.205-1.361,0.085-2.774,0.372-4.105c0.648-2.782,1.635-5.521,3.08-7.992
			c0.428-0.732,2.083-3.512,2.444-4.197c0.544-0.989,1.204-2.297,1.705-3.315c2.741-5.658,9.257-20.593,11.845-26.471
			c3.796-2.299,7.924-4.292,11.994-6.066c6.805-2.941,14.058-5.489,21.124-7.728c0.431,1.364,0.989,2.75,1.591,4.048
			c1.954,3.871,3.678,9.065,5.201,13.171c2.958,8.668,7.109,19.717,9.559,28.466c1.418,5.109,2.799,12.123,4.358,17.18
			c0.446,1.476,1.057,3.189,1.593,4.643c1.222,3.203,6.442,16.501,7.69,19.561c0.491,1.154,0.976,2.374,1.632,3.445
			c0.307,0.495,0.671,0.966,1.132,1.327c0.601,0.477,1.346,0.729,2.09,0.882c2.058,0.411,4.536,0.296,6.638,0.33
			c2.762-0.048,7.437,0.034,10.145-0.143c0.593-0.041,1.236-0.077,1.822-0.182c0.357-0.068,0.734-0.142,1.035-0.358
			c0.153-0.111,0.257-0.275,0.322-0.45c0.754-2.03,0.907-4.254,0.57-6.385c-0.213-1.363-0.594-2.732-1.325-3.913
			c-0.391-0.63-0.897-1.187-1.468-1.658c-0.946-0.783-2.082-1.34-3.288-1.577c-0.934-0.195-2.018-0.279-2.905-0.645
			c-0.579-0.234-1.101-0.601-1.539-1.044c-0.756-0.763-1.299-1.712-1.785-2.662c-0.936-1.879-1.673-3.891-2.205-5.921
			c-0.316-1.22-0.526-2.495-0.662-3.749c-0.183-1.492-0.529-7.552-0.644-9.131c-0.162-2.304-0.584-7.049-0.814-9.365
			c-0.856-8.154-2.614-22.603-3.548-30.766c-0.083-0.868-0.181-1.97-0.22-2.836c-0.051-1.135-0.054-2.301,0.086-3.43
			c0.12-0.984,0.361-1.962,0.73-2.883c0.476-1.191,1.146-2.31,1.874-3.363c1.631-2.366,4.416-5.41,6.207-7.671
			c1.595,1.845,3.041,3.878,4.359,5.929c1.34,2.049,3.356,5.814,4.566,7.989c0.96,1.684,2.004,3.367,3.28,4.831
			c2.3,2.645,5.288,4.607,8.285,6.375c2.186,1.269,6.47,3.643,8.494,5.026c2.097,1.398,4.13,2.969,5.998,4.661
			c3.496,3.151,6.508,6.862,8.874,10.93c1.754,2.969,3.305,6.273,4.708,9.427c1.359,3.168,3.343,7.536,4.558,10.741l1.01,2.796
			c0.607,1.628,1.386,3.31,2.836,4.352c1.139,0.839,2.529,1.284,3.924,1.447c1.079,0.12,2.187,0.107,3.251-0.125
			c0.749-0.17,1.505-0.459,2.062-1.006c0.394-0.377,0.615-0.893,0.745-1.415c0.178-0.696,0.273-1.508,0.499-2.191
			c0.338-1.067,0.949-2.148,1.345-3.193c0.215-0.574,0.377-1.181,0.37-1.798c-0.012-0.937-0.351-1.836-0.713-2.688
			c-0.947-2.043-1.85-4.291-2.543-6.428l-2.01-6.337c-0.623-1.881-1.326-3.806-2.177-5.592c-1.142-2.439-3.187-5.927-4.455-8.341
			c-2.003-3.761-3.586-8.415-5.634-12.155c-2.647-4.853-6.984-9.506-10.026-14.114c-2.739-4.121-4.639-8.789-5.661-13.625
			c-0.601-2.859-0.876-5.844-0.366-8.738c0.184-1.05,0.467-2.1,0.794-3.114c0.95-2.858,2.711-6.958,3.748-9.797
			c2.662-7.083,5.083-14.777,7.07-22.083c0.331-1.405,0.541-2.871,0.334-4.31c-0.15-1.143-0.678-2.769-1.007-3.893
			c-0.259-0.895-0.457-1.837-0.605-2.756c-0.388-2.372-0.541-5.296-1.084-7.634c-0.533-2.39-1.677-5.129-2.321-7.494
			c-0.928-3.368-1.167-7.377-1.765-10.817c-0.489-2.787-1.231-5.57-2.395-8.155c-1.236-2.769-3.159-5.471-4.583-8.144
			c-0.702-1.298-1.282-2.688-1.755-4.086c-0.399-1.15-1.317-4.109-1.797-5.223c-0.698-1.754-2.018-4.338-2.828-6.053
			c-0.962-2.026-1.843-4.212-2.906-6.188c-2.075-3.953-4.624-7.756-7.263-11.354c-1.76-2.366-3.637-4.856-5.712-6.957
			c-1.087-1.089-2.266-2.138-3.627-2.873c-0.913-0.493-1.917-0.844-2.953-0.944c-0.922-0.091-1.867,0.023-2.737,0.342
			c-0.729,0.264-1.409,0.672-1.977,1.2c-0.589,0.545-1.061,1.213-1.421,1.929c-0.389,0.767-0.652,1.603-0.849,2.439
			c-0.489,2.128-0.865,5.694-1.258,7.86c-6.977-1.26-14.095-2.717-20.753-5.185c-1.228-0.463-2.541-1.012-3.724-1.577
			c-1.273-0.596-2.976-1.557-4.221-2.238c-0.84-0.442-1.725-0.895-2.614-1.226c-0.485-0.178-0.99-0.332-1.507-0.371
			c-0.566-0.044-1.163,0.093-1.614,0.449c-0.231,0.185-0.404,0.441-0.484,0.727c-0.113,0.393-0.072,0.814,0.026,1.206
			c0.19,0.741,0.567,1.424,0.972,2.068c2.355,3.575,6.347,7.603,9.148,10.867c1.096,1.273,2.115,2.651,2.847,4.168
			c1.589,3.243,1.859,6.955,1.685,10.513c-0.41,0.43-0.803,0.888-1.145,1.374c-0.303,0.426-0.61,0.99-0.905,1.422
			c-0.45,0.674-1.027,1.269-1.627,1.812c-1.803,1.632-3.846,3.277-4.917,5.51c-0.599,1.245-0.78,2.651-0.739,4.021
			c0.051,1.736,0.384,3.478,0.764,5.169c-1.041-0.09-2.106-0.077-3.148,0.002c-2.563,0.171-9.565,1.337-12.201,1.709
			c-5.296,0.811-11.89,0.952-17.28,1.112c-3.708,0.128-7.432,0.691-11.028,1.595c-5.955,1.494-12.504,3.605-18.328,5.586
			c-7.411,2.553-38.931,14.608-46.84,17.551c-3.232,1.258-6.699,2.707-9.838,4.185C477.54,239.473,468.143,244.553,463.031,246.964z
			"/>
	</g>
	<g id="POLYLINE_00000068674636027498895120000005464778387691403914_">
		
			<path fill="none" stroke="#FB8604" stroke-width="3.5" stroke-linecap="round" stroke-linejoin="round" stroke-miterlimit="10" d="
			M349.343,251.082c5.208-3.717,10.393-7.807,15.074-12.164c9.511-8.862,18.019-18.933,25.392-29.632
			c2.694-3.958,9.261-14.087,12.104-17.701c1.136-1.468,2.361-2.954,3.675-4.265c0.839-0.84,1.764-1.629,2.734-2.314
			c1.198-0.866,2.973-1.843,4.261-2.596c0.77-0.461,1.535-0.96,2.221-1.538c0.635-0.533,1.223-1.155,1.773-1.775
			c1.381-1.568,2.766-3.352,4.43-4.624c1.973-1.545,4.415-2.341,6.834-2.873c3.451-0.76,7.799-1.018,11.345-1.289
			c1.212-0.103,2.48-0.224,3.669-0.478c1.091-0.234,2.181-0.586,3.12-1.202c0.617-0.403,1.158-0.927,1.572-1.538
			c0.557-0.822,0.904-1.773,1.147-2.731c0.635-2.643,0.602-5.422,0.266-8.107c-0.201-1.384-0.447-2.803-1.059-4.072
			c-0.437-0.905-1.152-1.637-1.987-2.183c-1.521-0.99-3.244-1.67-4.963-2.233c-2.427-0.767-4.972-1.264-7.522-1.287
			c-1.277-0.009-2.572,0.115-3.811,0.43c-1.424,0.357-2.794,0.944-4.082,1.643c-2.278,1.207-4.982,3.273-7.155,4.68
			c-1.573,1.031-3.285,1.972-4.965,2.819c-3.884,1.951-9.163,4.095-12.671,6.662c-1.529,1.076-3.035,2.33-4.436,3.569
			c-1.288,1.082-14.007,13.224-15.546,14.665c-3.258,2.904-6.607,5.912-10.424,8.063c-2.383,1.375-5.509,2.397-8.11,3.315
			c-0.261-3.007-0.806-6.625-1.265-9.63c-0.499-3.109-1.498-9.289-2.093-12.261c-0.908-4.567-2.01-9.218-3.621-13.588
			c-1.099-2.959-2.444-5.877-4.272-8.461c-0.77-1.084-1.639-2.115-2.608-3.026c-1.119-1.056-2.385-1.971-3.711-2.75
			c-4.947-2.919-10.827-4.008-15.984-6.463c-1.841-0.881-3.572-2.017-5.116-3.351c-3.333-2.879-5.877-6.629-7.508-10.71
			c-0.627-1.578-1.12-3.233-1.323-4.922c-0.188-1.526-0.13-3.091,0.187-4.596c0.434-2.105,1.367-4.084,2.499-5.9
			c1.299-2.102,2.918-4.14,4.479-6.056c2.92-3.595,7.79-8.843,10.057-12.814c0.959-1.669,1.689-3.498,1.96-5.411
			c0.586-4.102-1.016-8.299-3.664-11.405c-0.039-0.645-0.212-1.306-0.376-1.931c-0.342-1.297-0.686-2.681-1.294-3.881
			c-0.503-1.527-1.314-2.993-2.505-4.089c-2.742-2.557-6.678-0.921-9.558,0.531l-4.011,2.083c-2.918,1.492-6.025,2.747-9.298,3.146
			c-5.464,0.735-11.296-0.103-16.716,1.024c-2.19,0.456-4.255,1.408-6.135,2.607c-4.045,2.516-7.562,6.442-12.091,8.133
			c-1.5,0.549-3.175,0.819-4.733,0.358c-1.584-0.466-2.843-1.634-3.906-2.853c-1.915-2.21-4.109-5.958-5.732-8.423
			c-2.15-3.209-4.459-6.482-7.324-9.094c-0.74-0.651-1.535-1.271-2.434-1.686c-0.532-0.242-1.117-0.407-1.706-0.372
			c-0.314,0.019-0.627,0.099-0.905,0.248c-0.273,0.145-0.51,0.355-0.697,0.6c-0.361,0.474-0.55,1.055-0.672,1.632
			c-0.205,1.014-0.218,2.065-0.184,3.095c0.097,2.426,0.501,4.924,0.913,7.316c1.231,6.788,2.867,14.063,4.664,20.719
			c1.198,4.392,2.584,9.005,4.192,13.264c1.008,2.633,2.133,5.298,3.671,7.67c-1.103,5.172-1.118,10.709,0.721,15.715
			c1.336,3.665,3.548,6.966,5.902,10.051c3.279,4.3,9.511,11.187,12.749,15.516c0.816,1.093,1.652,2.272,2.347,3.445
			c0.746,1.263,1.39,2.623,1.633,4.08c0.271,1.541,0.012,3.119-0.389,4.613c-0.281,1.151-1.356,4.331-1.704,5.489
			c-0.556,1.834-1.019,3.737-1.239,5.642c-0.309,2.471-0.381,5.572-0.961,7.991c-0.298,1.26-0.758,2.503-1.498,3.574
			c-0.704,1.023-1.621,1.889-2.584,2.665c-2.079,1.679-4.66,3.091-6.617,4.919c-1.56,1.453-2.637,3.342-3.544,5.251
			c-0.987,2.133-2.324,5.093-3.481,7.105c-1.421,2.628-8.089,13.341-9.745,16.083c-2.556,4.297-5.122,8.944-7.282,13.45
			c-3.423,7.125-6.516,14.876-9.254,22.293c-4.444,12.231-10.851,31.647-15.003,44.009c-1.033,3.219-2.365,7.419-3.242,10.669
			c-0.758,2.797-1.434,5.72-1.736,8.605c-0.154,1.352-0.237,2.927-0.299,4.289c-0.25,6.589-0.281,15.104-0.244,21.714
			c0.011,7.781,0.667,19.306,0.515,27.077c-2.637,0.693-8.61,2.336-11.182,2.866c-2.686,0.589-5.62,1.085-8.35,1.418
			c-13.414,1.655-43.972,1.15-57.825,1.461c-8.073,0.209-34.8,1.393-42.368,1.139c-1.909-0.039-4.04-0.129-5.944-0.267
			c-1.466-0.106-5.154-0.425-6.563-0.448c-1.281-0.028-2.591-0.006-3.846,0.276c-0.959,0.216-1.901,0.621-2.615,1.311
			c-0.522,0.5-0.912,1.126-1.208,1.783c-0.416,0.93-0.659,1.936-0.793,2.944c-0.116,0.896-0.148,1.811-0.08,2.712
			c0.05,0.613,0.138,1.235,0.337,1.819c0.127,0.37,0.31,0.727,0.566,1.024c0.25,0.294,0.567,0.527,0.905,0.711
			c0.745,0.399,1.577,0.63,2.394,0.832c1.636,0.388,3.368,0.611,5.04,0.785c2.048,0.204,4.26,0.329,6.317,0.38
			c28.4,0.077,100.869-0.032,128.402-0.688c2.575,0.629,5.304,0.623,7.942,0.653c4.09-0.073,12.402-0.136,16.448-0.083
			c1.111-0.006,2.393-0.025,3.495-0.095c1.21-0.076,2.444-0.204,3.628-0.466c1.185-0.267,2.376-0.669,3.351-1.413
			c0.542-0.411,0.99-0.944,1.307-1.545c4.591,0.632,9.317,0.676,13.869-0.264c0.891,0.665,1.83,1.309,2.846,1.767
			c1.379,0.627,2.866,1.008,4.35,1.291c1.927,0.362,3.956,0.546,5.913,0.648c11.29,0.287,45.708-0.105,56.7-0.248
			c2.733,0.327,5.943,0.311,8.705,0.385c3.759,0.023,7.72,0.03,11.451-0.405c0.829-0.104,1.677-0.233,2.485-0.448
			c0.461-0.126,0.924-0.281,1.337-0.526c0.27-0.16,0.517-0.366,0.704-0.62c0.192-0.257,0.318-0.559,0.398-0.868
			c0.226-0.946,0.169-1.944,0.15-2.909c-0.078-2.029-0.314-4.079-0.798-6.054c-0.326-1.293-0.759-2.586-1.47-3.723
			c-0.403-0.641-0.918-1.212-1.498-1.697c-0.962-0.823-2.271-1.486-3.365-2.124c-0.598-0.351-1.195-0.733-1.724-1.181
			c-0.567-0.479-1.074-1.039-1.514-1.637c-0.81-1.1-1.418-2.346-1.898-3.621c-0.813-2.17-1.267-4.486-1.604-6.774
			c-0.435-2.998-0.89-7.908-1.378-10.886c-0.444-2.809-1.125-5.73-1.845-8.481l-3.678-13.292c-2.012-7.623-3.629-15.53-4.297-23.391
			c-0.464-5.245-0.408-10.647-0.118-15.904l1.4-18.456C339.261,266.447,344.787,258.982,349.343,251.082z"/>
	</g>
	<g id="POLYLINE_00000070801950712577595600000006478202528793109912_">
		
			<path fill="none" stroke="#FB8604" stroke-width="3.5" stroke-linecap="round" stroke-linejoin="round" stroke-miterlimit="10" d="
			M324.913,382.166c-9.058-0.034-19.654,0.14-28.647-0.527c-0.666-0.081-1.357-0.158-1.969-0.449
			c-0.664-0.328-1.24-0.862-1.551-1.54c-0.367-0.787-0.396-1.689-0.285-2.538c0.177-1.31,0.698-2.558,1.385-3.681
			c0.496-0.813,1.098-1.607,1.69-2.353c2.751-3.334,6.458-7.647,9.044-11.083c1.133-1.492,2.314-3.102,3.242-4.73
			c2.14-3.733,3.821-8.045,5.421-12.042c1.707,6.367,3.494,13.543,5.766,19.699c0.37,0.974,0.787,2,1.248,2.933
			c0.474,0.984,1.24,2.225,1.805,3.171c0.384,0.655,0.747,1.348,1.022,2.056c0.29,0.735,0.503,1.517,0.68,2.287
			C324.394,376.22,324.662,379.259,324.913,382.166z"/>
	</g>
</g>
</svg>
